<svg width="432" height="655" viewBox="0 0 432 655" fill="none" xmlns="http://www.w3.org/2000/svg">
<path d="M174.84 1.5327C155.24 6.99937 143.106 19.666 137.64 40.1994C136.173 45.266 135.773 60.7327 135.64 104.866C135.64 140.066 135.106 161.533 134.44 159.533C133.773 157.666 130.173 140.333 126.44 121.133C119.24 83.7994 116.573 74.9994 109.773 64.066C94.973 40.9994 64.7063 34.066 39.373 48.1994C30.7063 53.1327 20.573 64.7327 16.973 73.9327C11.2397 88.7327 11.773 96.7327 23.6397 174.199C32.573 232.733 47.9063 338.866 51.1063 364.333L52.0397 371.266L41.5063 376.199C27.9063 382.866 14.0397 396.333 8.03967 408.999C1.23967 423.266 -0.627 433.666 0.173 452.866C1.10633 471.799 3.90633 484.199 11.5063 502.466C21.373 526.466 29.2397 537.666 62.4397 574.866C92.973 609.133 104.706 626.199 107.906 640.733C110.706 653.666 121.24 658.333 130.44 650.599C134.706 647.133 134.706 646.866 134.173 637.399C132.84 617.533 122.04 600.999 75.2397 548.066C47.6397 516.733 38.973 502.733 30.973 476.066C26.173 459.933 25.773 437.399 30.173 426.066C35.773 411.933 47.5063 401.666 63.773 396.866C73.5063 393.933 77.9063 390.599 79.2397 385.266C81.1063 378.199 74.0397 324.733 51.6397 176.866C39.373 95.666 38.8397 90.3327 43.1063 82.066C46.173 76.3327 53.773 70.5994 60.8397 68.9994C75.2397 65.5327 86.8397 73.266 91.773 89.9327C93.2397 94.866 100.173 128.199 107.24 164.199C126.84 264.733 134.306 300.466 136.706 305.399C139.906 312.199 147.506 314.733 154.84 311.399C162.04 308.066 161.773 314.466 162.44 175.533L163.106 46.7327L166.44 40.1994C171.373 30.866 178.573 27.1327 191.24 27.7994C202.44 28.3327 208.573 31.7994 213.373 40.1994L216.44 45.5327L217.106 175.933L217.773 306.466L221.506 309.666C228.306 315.533 239.506 313.133 242.573 305.133C243.24 303.266 250.173 254.866 257.906 197.666C270.04 107.133 272.306 92.5994 275.24 86.1994C280.84 73.7994 287.24 68.866 297.373 68.866C317.506 68.866 325.106 78.866 323.24 102.733C322.44 113.799 311.906 206.466 302.706 283.533C300.04 306.599 297.906 327.133 298.173 329.133C298.706 333.533 303.773 339.133 308.44 340.333C313.24 341.533 320.44 337.933 322.84 333.266C323.906 331.266 333.906 297.133 345.106 257.533C369.906 169.533 372.44 162.066 380.306 153.133C383.773 149.266 392.706 149.133 397.506 152.866C406.573 159.933 405.906 172.066 391.906 260.733L381.106 329.266V387.399C381.106 475.533 378.973 499.533 368.306 531.533C361.906 550.733 353.773 565.666 335.506 591.533C317.106 617.666 314.306 623.266 313.506 636.999C312.84 646.999 312.84 646.999 317.106 650.599C325.64 657.933 337.24 653.666 339.106 642.733C340.84 632.466 342.84 628.466 356.973 608.466C380.306 575.133 388.04 560.733 395.64 536.066C406.306 501.799 407.773 484.866 407.773 402.733V335.799L419.106 262.866C425.373 222.733 430.84 185.266 431.373 179.666C432.84 160.733 428.44 145.399 418.573 135.133C412.573 128.733 406.706 125.666 396.573 123.533C376.44 119.399 360.04 128.866 349.64 150.599C344.306 161.666 344.306 161.799 347.773 132.199C353.24 84.9994 350.173 66.5994 334.84 53.666C324.04 44.5994 302.573 39.266 288.04 42.1994C267.773 46.3327 252.706 62.1994 246.306 86.1994L244.04 94.866L243.506 67.5327C243.106 43.666 242.573 39.266 240.173 33.266C234.573 19.266 223.773 8.46604 210.44 3.39937C200.84 -0.200628 184.04 -1.13396 174.84 1.5327Z" fill="#FAFF00"/>
</svg>
