<?xml version="1.0" encoding="UTF-8" standalone="no"?>
<!-- Created with Inkscape (http://www.inkscape.org/) -->

<svg
   width="25.403748mm"
   height="25.361271mm"
   viewBox="0 0 25.403748 25.361271"
   version="1.1"
   id="svg5"
   xml:space="preserve"
   xmlns:inkscape="http://www.inkscape.org/namespaces/inkscape"
   xmlns:sodipodi="http://sodipodi.sourceforge.net/DTD/sodipodi-0.dtd"
   xmlns="http://www.w3.org/2000/svg"
   xmlns:svg="http://www.w3.org/2000/svg"><sodipodi:namedview
     id="namedview7"
     pagecolor="#ffffff"
     bordercolor="#000000"
     borderopacity="0.25"
     inkscape:showpageshadow="2"
     inkscape:pageopacity="0.0"
     inkscape:pagecheckerboard="0"
     inkscape:deskcolor="#d1d1d1"
     inkscape:document-units="mm"
     showgrid="false" /><defs
     id="defs2" /><g
     inkscape:label="Livello 1"
     inkscape:groupmode="layer"
     id="layer1"
     transform="translate(666.37892,22.311139)"><g
       style="fill:none"
       id="g112"
       transform="matrix(0.04972029,0,0,0.04972029,-666.37889,-22.311139)"><path
         d="M 231.048,0.639832 C 171.451,6.72923 117.146,32.3846 75.0194,74.4114 c -100.0259,99.8266 -100.0259,261.5446 0,361.3706 40.5296,40.43 89.9436,64.688 149.0406,73.073 11.879,1.697 51.111,1.597 63.39,-0.1 57.899,-7.986 108.71,-32.942 148.641,-73.073 46.319,-46.618 72.174,-105.915 74.67,-171.601 C 513.356,193.105 486.603,125.023 435.991,74.4114 396.759,35.0799 347.046,10.2231 290.943,1.93757 278.765,0.140701 243.326,-0.657908 231.048,0.639832 Z M 292.441,38.3741 c 46.319,8.3854 85.751,28.9496 118.294,61.493 41.827,41.8269 64.388,96.2329 64.388,155.2299 0,83.954 -46.819,159.223 -122.587,197.057 -30.147,15.073 -62.391,22.56 -97.031,22.56 -58.897,0 -113.502,-22.66 -155.23,-64.387 -33.0421,-33.043 -53.5064,-72.874 -62.0915,-120.79 -2.4956,-14.275 -2.4956,-54.605 0,-68.88 8.5851,-47.917 29.0494,-87.747 62.0915,-120.7899 35.638,-35.638 78.763,-56.5017 130.773,-63.3897 12.278,-1.5972 48.316,-0.4991 61.393,1.8967 z"
         fill="#ffffff"
         id="path97" /><path
         d="m 247.22,134.707 c -11.181,3.094 -18.967,12.278 -18.967,22.361 0,13.077 10.282,22.96 24.856,23.958 16.372,0.998 29.349,-9.284 29.349,-23.359 -0.1,-16.072 -18.068,-27.852 -35.238,-22.96 z"
         fill="#ffffff"
         id="path99" /><path
         d="m 247.619,213.27 c -6.988,1.198 -12.878,4.492 -15.773,8.784 l -2.296,3.494 0.2,67.583 0.299,67.682 3.395,3.494 c 5.39,5.49 12.078,7.986 22.061,8.086 7.687,0 9.184,-0.3 15.174,-3.295 11.679,-5.79 10.781,0.899 10.781,-77.365 v -67.482 l -3.095,-3.494 c -5.39,-6.19 -18.967,-9.484 -30.746,-7.487 z"
         fill="#ffffff"
         id="path101" /></g></g></svg>
