<?xml version="1.0" encoding="UTF-8" standalone="no"?>
<!-- Created with Inkscape (http://www.inkscape.org/) -->

<svg
   width="31.544983mm"
   height="33.339493mm"
   viewBox="0 0 31.544983 33.339493"
   version="1.1"
   id="svg5"
   xml:space="preserve"
   xmlns:inkscape="http://www.inkscape.org/namespaces/inkscape"
   xmlns:sodipodi="http://sodipodi.sourceforge.net/DTD/sodipodi-0.dtd"
   xmlns="http://www.w3.org/2000/svg"
   xmlns:svg="http://www.w3.org/2000/svg"><sodipodi:namedview
     id="namedview7"
     pagecolor="#ffffff"
     bordercolor="#000000"
     borderopacity="0.25"
     inkscape:showpageshadow="2"
     inkscape:pageopacity="0.0"
     inkscape:pagecheckerboard="0"
     inkscape:deskcolor="#d1d1d1"
     inkscape:document-units="mm"
     showgrid="false" /><defs
     id="defs2" /><g
     inkscape:label="Livello 1"
     inkscape:groupmode="layer"
     id="layer1"
     transform="translate(705.93434,83.925809)"><path
       d="m -687.73524,-83.836615 c 0.96791,0.212141 1.66399,0.835303 2.03525,1.816448 0.13922,0.357986 0.14583,0.497204 0.17233,4.149998 0.0266,4.302449 -0.0265,4.229507 0.54365,0.662922 0.37787,-2.340165 0.46404,-2.625227 0.95462,-3.115801 0.53698,-0.543607 1.32585,-0.788892 2.38657,-0.749117 0.55021,0.01989 0.7292,0.05303 1.0408,0.198882 0.47071,0.218765 0.92813,0.689452 1.19991,1.23969 0.33809,0.689466 0.32486,1.153507 -0.0862,3.58647 -0.2917,1.71704 -0.78225,4.348884 -0.90157,4.806312 -0.0265,0.106053 -0.0199,0.112715 0.0332,0.03317 0.0398,-0.05305 0.23866,-0.609918 0.4442,-1.239726 0.40437,-1.259564 0.60987,-1.624163 1.08057,-1.968924 1.40544,-1.034181 3.43403,-0.550204 4.19639,1.007681 0.17899,0.357987 0.21877,0.523705 0.23866,1.007682 0.0265,0.563481 0.0133,0.63642 -0.58336,2.79095 -2.21425,8.054687 -3.3081,11.707489 -3.88485,12.993553 -1.538,3.440645 -4.27595,5.489122 -7.97513,5.966436 -0.77564,0.09944 -2.3733,0.07955 -3.10255,-0.03978 -1.8496,-0.298322 -3.64614,-1.087184 -5.35652,-2.360023 -1.35901,-1.007681 -7.14647,-6.191867 -9.21484,-8.246958 -1.15351,-1.146897 -1.47834,-1.836318 -1.41205,-3.009718 0.0265,-0.464088 0.0663,-0.616531 0.31821,-1.113735 0.58338,-1.180061 1.66397,-1.876144 2.91029,-1.876144 0.45081,0 1.2861,0.232045 1.70375,0.470702 0.19891,0.112716 0.82866,0.629806 1.39881,1.140236 1.38555,1.259613 2.06175,1.842982 2.44624,2.108139 0.84853,0.590031 1.81643,-0.01989 1.81643,-1.146848 0,-0.205544 -0.21212,-1.650714 -0.46404,-3.215262 -0.25855,-1.557886 -0.72259,-4.461552 -1.03418,-6.450362 -0.65631,-4.183169 -0.66958,-4.474826 -0.3116,-5.243847 0.22543,-0.483942 0.41104,-0.689455 0.92813,-1.027554 0.90158,-0.590015 2.12803,-0.543606 3.0495,0.119329 0.44414,0.311582 0.90824,0.948002 1.06734,1.458466 0.0729,0.225392 0.32482,1.663949 0.55687,3.188722 l 0.41765,2.777723 0.0398,-4.368773 c 0.0332,-4.541118 0.0398,-4.554374 0.32483,-5.131131 0.30498,-0.590014 1.1005,-1.12699 1.86287,-1.252949 0.5237,-0.07955 0.64969,-0.07955 1.16012,0.03315 z m -1.08057,1.617567 c -0.55686,0.258546 -0.51048,-0.258544 -0.55026,6.470246 -0.0332,5.873658 -0.0332,5.973097 -0.17238,6.264758 -0.39776,0.855188 -1.27279,1.15351 -2.04842,0.696084 -0.45081,-0.265159 -0.66297,-0.63642 -0.76241,-1.345731 -0.0398,-0.318208 -0.23866,-1.650712 -0.43754,-2.963328 -0.19221,-1.312616 -0.45743,-3.122436 -0.57675,-4.024062 -0.25194,-1.803157 -0.30494,-1.968905 -0.74914,-2.22745 -0.21211,-0.125957 -0.33143,-0.145844 -0.67619,-0.125957 -0.35794,0.01989 -0.44415,0.0464 -0.61654,0.225399 -0.3911,0.384516 -0.40437,0.178992 0.6497,7.146475 0.85518,5.608448 0.96791,6.470252 0.97451,7.226001 0.007,0.994405 -0.10605,1.378891 -0.55686,1.942421 -0.83531,1.060684 -2.44625,1.484947 -3.54008,0.928079 -0.42427,-0.218768 -1.45184,-1.067295 -3.04288,-2.519127 -1.14026,-1.040845 -1.71701,-1.306004 -2.42635,-1.113735 -0.37788,0.09944 -0.85519,0.543592 -0.92812,0.861801 -0.0729,0.344712 0.0199,1.067346 0.18563,1.412057 0.21876,0.450815 2.18106,2.313633 6.30454,5.986323 2.94345,2.611957 3.44726,3.022995 4.58755,3.719078 1.47166,0.894966 2.91027,1.392169 4.39527,1.511498 0.60326,0.05305 1.92248,-0.05305 2.67162,-0.205495 2.91027,-0.596643 5.0118,-2.565568 6.01948,-5.648226 0.71597,-2.181079 3.86491,-13.344926 3.91796,-13.875292 0.053,-0.56348 -0.12599,-0.914853 -0.58341,-1.140236 -0.41099,-0.212156 -0.53032,-0.21877 -0.89497,-0.05305 -0.37122,0.17238 -0.5237,0.39115 -0.72259,1.054071 -0.14583,0.503816 -1.12034,3.566584 -1.59766,5.058193 -0.28509,0.875078 -0.80219,1.312616 -1.54466,1.31928 -0.60992,0 -1.06734,-0.304986 -1.31923,-0.88174 -0.13921,-0.324824 -0.0862,-0.908191 0.2121,-2.47274 0.43755,-2.247356 0.9878,-5.257076 1.33251,-7.285664 0.16578,-0.987794 0.35137,-1.949037 0.41104,-2.141304 0.0994,-0.318209 0.0994,-0.364599 0,-0.57675 -0.28505,-0.596644 -1.50488,-0.682823 -1.86286,-0.132589 -0.0928,0.139217 -0.24528,0.961272 -0.57677,3.009748 -1.0474,6.563079 -1.08056,6.728797 -1.5645,7.172949 -0.73585,0.689471 -1.81648,0.41765 -2.13468,-0.530318 -0.053,-0.159103 -0.0729,-1.896033 -0.0729,-6.132202 0,-5.608429 -0.007,-5.920006 -0.126,-6.178552 -0.22537,-0.503832 -0.96786,-0.702711 -1.57777,-0.430911 z"
       fill="#e3e3e3"
       id="path20"
       style="stroke-width:0.0497204" /></g></svg>
