<?xml version="1.0" encoding="UTF-8" standalone="no"?>
<!-- Created with Inkscape (http://www.inkscape.org/) -->

<svg
   width="31.544922mm"
   height="33.339493mm"
   viewBox="0 0 31.544922 33.339493"
   version="1.1"
   id="svg5"
   xml:space="preserve"
   xmlns:inkscape="http://www.inkscape.org/namespaces/inkscape"
   xmlns:sodipodi="http://sodipodi.sourceforge.net/DTD/sodipodi-0.dtd"
   xmlns="http://www.w3.org/2000/svg"
   xmlns:svg="http://www.w3.org/2000/svg"><sodipodi:namedview
     id="namedview7"
     pagecolor="#ffffff"
     bordercolor="#000000"
     borderopacity="0.25"
     inkscape:showpageshadow="2"
     inkscape:pageopacity="0.0"
     inkscape:pagecheckerboard="0"
     inkscape:deskcolor="#d1d1d1"
     inkscape:document-units="mm"
     showgrid="false" /><defs
     id="defs2" /><g
     inkscape:label="Livello 1"
     inkscape:groupmode="layer"
     id="layer1"
     transform="translate(620.868,33.077785)"><path
       d="m -607.52222,-32.988579 c -0.96786,0.21214 -1.66395,0.835304 -2.03521,1.816451 -0.13922,0.357985 -0.14583,0.497201 -0.17238,4.149997 -0.0265,4.302446 0.0266,4.229506 -0.54359,0.662922 -0.37787,-2.340167 -0.46403,-2.625228 -0.95463,-3.115803 -0.53697,-0.543605 -1.32589,-0.788892 -2.38657,-0.749115 -0.55025,0.01988 -0.72925,0.05303 -1.0408,0.198881 -0.47069,0.218763 -0.92812,0.689451 -1.19994,1.23969 -0.33808,0.689467 -0.32483,1.153505 0.0862,3.586469 0.29166,1.717041 0.78224,4.348886 0.90158,4.806309 0.0265,0.106056 0.0199,0.112718 -0.0332,0.03317 -0.0398,-0.05306 -0.23866,-0.609918 -0.44416,-1.239725 -0.40437,-1.259564 -0.60989,-1.624163 -1.08057,-1.968923 -1.40544,-1.034181 -3.43402,-0.550205 -4.1964,1.007679 -0.17899,0.357987 -0.21877,0.523705 -0.23866,1.007682 -0.0265,0.563482 -0.0133,0.636422 0.58339,2.790951 2.2142,8.054684 3.30805,11.7074845 3.88481,12.9935511 1.53803,3.4406431 4.27592,5.48912039 7.97511,5.96643416 0.77564,0.0994392 2.37335,0.0795522 3.10255,-0.0397823 1.8496,-0.29831965 3.64618,-1.08718268 5.35656,-2.36002166 1.35901,-1.007682 7.14645,-6.191868 9.21481,-8.2469573 1.15351,-1.146899 1.47839,-1.83632 1.41206,-3.009717 -0.0265,-0.464089 -0.0663,-0.616532 -0.31821,-1.113733 -0.58336,-1.180063 -1.66394,-1.876147 -2.91027,-1.876147 -0.45082,0 -1.28612,0.232046 -1.70377,0.470702 -0.19889,0.112716 -0.8287,0.629807 -1.39878,1.140234 -1.38556,1.259615 -2.06176,1.842982 -2.44625,2.108143 -0.84857,0.59003 -1.81648,-0.0199 -1.81648,-1.14685 0,-0.205544 0.21217,-1.650714 0.46409,-3.215261 0.25856,-1.557886 0.72259,-4.461551 1.03418,-6.450362 0.65631,-4.183167 0.66954,-4.474827 0.31156,-5.243845 -0.22539,-0.483942 -0.41099,-0.689456 -0.92809,-1.027556 -0.90162,-0.590014 -2.12802,-0.543606 -3.04954,0.119329 -0.44415,0.311584 -0.90819,0.948004 -1.06729,1.458466 -0.0729,0.225394 -0.32487,1.663949 -0.55687,3.188724 l -0.41765,2.777721 -0.0398,-4.368773 c -0.0332,-4.541117 -0.0398,-4.554373 -0.32487,-5.131128 -0.30494,-0.590015 -1.10046,-1.126992 -1.86282,-1.252952 -0.52375,-0.07955 -0.6497,-0.07955 -1.16018,0.03314 z m 1.08062,1.617568 c 0.55686,0.258548 0.51042,-0.258545 0.5502,6.470247 0.0332,5.873655 0.0332,5.973097 0.17238,6.264756 0.39776,0.855188 1.27284,1.153511 2.04848,0.696082 0.45081,-0.265158 0.66292,-0.636417 0.76237,-1.345729 0.0398,-0.318209 0.23864,-1.650713 0.43753,-2.963327 0.19227,-1.312616 0.45743,-3.122436 0.57675,-4.024063 0.25193,-1.803157 0.30499,-1.968902 0.74913,-2.22745 0.21216,-0.125957 0.33149,-0.145844 0.6762,-0.125957 0.35798,0.0199 0.44415,0.04641 0.61654,0.225399 0.39114,0.384516 0.40437,0.178993 -0.6497,7.146475 -0.85519,5.60845 -0.96785,6.47025 -0.97452,7.225999 -0.007,0.994406 0.10611,1.378893 0.55687,1.942421 0.8353,1.060686 2.44624,1.484947 3.54009,0.928079 0.4243,-0.218768 1.45183,-1.067295 3.04288,-2.519126 1.14028,-1.040846 1.71704,-1.306004 2.4264,-1.113735 0.37782,0.09944 0.85518,0.543593 0.92808,0.8618 0.0729,0.344711 -0.0199,1.067346 -0.18561,1.412058 -0.21877,0.450814 -2.18108,2.313632 -6.30454,5.9863215 -2.94344,2.6119573 -3.4473,3.0229938 -4.58754,3.7190785 -1.47172,0.8949644 -2.91028,1.392168 -4.39527,1.5114969 -0.60326,0.053055 -1.92253,-0.053048 -2.67162,-0.2054959 -2.91033,-0.5966421 -5.0118,-2.5655658 -6.01949,-5.6482213 -0.71597,-2.1810819 -3.86492,-13.3449267 -3.91795,-13.8752927 -0.053,-0.563479 0.12595,-0.914852 0.58339,-1.140235 0.41102,-0.212158 0.53034,-0.21877 0.89496,-0.05305 0.37125,0.172381 0.52372,0.391149 0.72261,1.05407 0.14584,0.503815 1.12035,3.566585 1.59767,5.058195 0.28504,0.875077 0.80213,1.312613 1.54466,1.319276 0.60986,0 1.06729,-0.304983 1.31923,-0.881741 0.13921,-0.324821 0.0862,-0.908188 -0.21216,-2.472738 -0.43754,-2.247359 -0.98774,-5.257075 -1.33251,-7.285663 -0.16571,-0.987791 -0.35132,-1.949033 -0.41098,-2.141304 -0.0994,-0.31821 -0.0994,-0.3646 0,-0.57675 0.28504,-0.596642 1.50482,-0.682822 1.86282,-0.132588 0.0928,0.139216 0.24531,0.961271 0.57675,3.009749 1.04746,6.563075 1.08062,6.728795 1.56455,7.172945 0.73586,0.689473 1.81643,0.417652 2.13464,-0.530317 0.053,-0.159104 0.0729,-1.896032 0.0729,-6.132201 0,-5.608429 0.007,-5.920007 0.12594,-6.17855 0.22543,-0.503832 0.96791,-0.702715 1.57783,-0.430913 z"
       fill="#e3e3e3"
       id="path42"
       style="stroke-width:0.0497204"
       inkscape:export-filename="palm_sx_off.svg"
       inkscape:export-xdpi="96"
       inkscape:export-ydpi="96" /></g></svg>
