<?xml version="1.0" encoding="UTF-8" standalone="no"?>
<svg
   width="364"
   height="630.93201"
   viewBox="0 0 364 630.93201"
   fill="none"
   version="1.1"
   id="svg4"
   sodipodi:docname="V Sign dx yell.svg"
   xmlns:inkscape="http://www.inkscape.org/namespaces/inkscape"
   xmlns:sodipodi="http://sodipodi.sourceforge.net/DTD/sodipodi-0.dtd"
   xmlns="http://www.w3.org/2000/svg"
   xmlns:svg="http://www.w3.org/2000/svg">
  <defs
     id="defs8" />
  <sodipodi:namedview
     id="namedview6"
     pagecolor="#ffffff"
     bordercolor="#000000"
     borderopacity="0.25"
     inkscape:showpageshadow="2"
     inkscape:pageopacity="0.0"
     inkscape:pagecheckerboard="0"
     inkscape:deskcolor="#d1d1d1"
     showgrid="false" />
  <path
     d="m 158.167,19.075277 c 7.385,-9.3327605 14.461,-14.3580305 25.332,-18.0500905 2.564,-0.82046099 7.179,-1.23070899 12.615,-0.92303699 7.076,0.307672 9.64,1.02557699 16.306,4.10229699 14.871,7.0764305 25.332,20.9216305 29.127,38.5615305 2.358,11.1787 -0.616,32.7158 -13.025,94.353003 -0.821,4.205 -2.667,14.358 -4.103,22.46 -1.435,8.204 -2.769,15.076 -2.974,15.486 -0.718,1.128 -4.717,25.844 -4.307,26.357 0.308,0.205 3.179,-0.307 6.461,-1.333 4.615,-1.333 8.512,-1.538 16.922,-1.231 10.153,0.513 11.589,0.821 18.973,4.513 15.384,7.692 24.101,18.768 27.691,35.28 0.923,4.204 1.846,7.794 1.948,7.999 0.103,0.103 1.539,-0.205 3.077,-0.82 1.641,-0.616 7.179,-1.129 12.307,-1.129 14.358,0 26.46,5.128 35.997,15.384 9.743,10.358 15.076,26.665 13.025,40.408 -0.923,7.076 0,20.101 2.154,27.075 0.308,1.025 2.256,13.332 4.41,27.485 l 3.897,25.639 v 45.638 c -0.103,39.793 -0.308,46.869 -1.949,54.869 -2.564,12.717 -5.127,21.947 -7.589,26.767 -1.025,2.154 -2.359,5.025 -2.769,6.359 -0.82,2.871 -9.845,17.742 -13.743,22.767 -6.461,8.513 -6.256,7.179 -6.256,31.998 0,24.511 -0.923,30.562 -6.153,40.716 -3.384,6.666 -12.102,14.46 -20.204,18.05 l -6.974,3.076 -5.128,-22.05 4.513,-2.256 c 2.564,-1.333 5.948,-4.307 7.692,-6.769 l 3.179,-4.512 0.513,-28.408 c 0.41,-23.281 0.82,-28.819 2.051,-30.46 0.82,-1.026 1.846,-2.359 2.359,-2.974 15.178,-20.204 22.768,-35.485 25.947,-52.817 2.051,-10.871 3.384,-63.688 2.256,-85.123 -0.82,-14.768 -2.974,-34.254 -4.923,-43.074 -0.512,-2.564 -2.153,-16.204 -3.589,-30.254 -2.872,-28.101 -4.82,-36.716 -9.948,-43.382 -1.744,-2.256 -5.538,-5.436 -8.41,-7.076 -4.307,-2.359 -6.461,-2.872 -12.409,-2.872 -9.538,0.102 -12.615,1.846 -19.794,11.794 -6.974,9.538 -10.358,11.794 -16.614,10.974 -9.128,-1.231 -13.743,-10.359 -9.436,-18.768 9.436,-18.768 9.231,-35.998 -0.512,-43.074 -13.128,-9.641 -27.793,-9.743 -37.947,-0.103 -4.102,3.897 -4.82,5.333 -8.102,16.614 -2.769,9.641 -4.204,12.923 -6.563,15.076 -8.512,7.897 -22.358,1.436 -21.23,-9.948 0.206,-2.256 1.641,-9.435 3.077,-15.896 1.538,-6.461 4.102,-19.281 5.846,-28.409 4.512,-23.998 9.025,-48.099 11.794,-62.867 1.333,-7.077 4.102,-21.845 6.153,-32.819 2.052,-10.973 5.128,-27.177303 6.872,-35.894603 5.025,-25.8445 3.282,-37.6386 -7.077,-47.279 -2.153,-2.0511 -5.435,-4.2048 -7.384,-4.9227 -4.102,-1.3333 -10.973,-1.3332 -14.255,-0.1025 -10.769,4.4099 -19.999,20.3063 -22.768,39.1768 -0.615,4.1023 -2.461,15.7939 -4.102,25.9471 -1.641,10.1531 -4.41,27.690903 -6.154,38.971903 -1.743,11.281 -3.897,24.614 -4.82,29.741 -0.82,5.026 -2.359,15.179 -3.487,22.563 -1.025,7.282 -2.564,17.23 -3.487,22.05 -1.538,8.41 -4.717,29.126 -8.717,54.971 -2.051,14.05 -2.872,16.101 -7.179,18.357 -4.82,2.462 -8.82,1.949 -12.922,-1.846 -3.385,-3.179 -3.693,-3.794 -5.539,-15.896 -1.025,-6.871 -2.153,-13.333 -2.461,-14.358 -0.308,-0.923 -1.436,-8.41 -2.666,-16.614 -1.231,-8.205 -2.564,-16.512 -3.0771,-18.461 -0.5128,-1.948 -1.641,-8.717 -2.564,-14.87 -0.8204,-6.256 -2.4613,-16.41 -3.5895,-22.563 -2.2562,-12.204 -4.9227,-28.408 -8.7174,-51.792 -1.3332,-8.204 -3.5895,-22.254503 -5.1278,-31.279503 -4.3074,-26.87 -8.6148,-39.2795 -16.3066,-47.4841 -4.41,-4.7176 -7.897,-6.3586 -13.6402,-6.3586 -6.4611,0.1026 -12.512,2.8716 -18.1526,8.5123 -5.8458,5.8458 -7.4867,9.2302 -9.0251,17.9476 -1.3987,8.0927 -1.3375,8.4962 12.3207,98.496303 l 1.1144,7.343 c 1.6409,10.973 3.7946,25.024 4.7176,31.28 0.8204,6.153 2.769,18.46 4.1023,27.177 1.3332,8.718 3.1793,20.717 4.1023,26.665 3.2818,23.281 6.5636,43.074 8.6148,52.817 1.1281,5.641 2.769,14.153 3.5895,18.974 0.8205,4.82 2.2563,11.896 3.0767,15.896 0.923,3.897 2.564,12.614 3.6921,19.281 l 2.1537,12.204 -2.8716,2.154 c -2.9742,2.359 -4.2049,3.282 -15.2811,11.486 -15.4861,11.384 -25.0239,23.588 -28.1007,35.895 -0.7179,2.769 -1.5383,11.999 -1.9486,20.512 -1.1281,24.203 0.8205,35.792 8.3072,51.483 6.0509,12.923 16.204,27.281 26.2547,37.536 l 8.9225,8.923 0.5127,28.511 c 0.4103,24.716 0.7179,28.818 2.2563,30.972 2.9742,4.308 4.3074,5.641 7.9995,8.205 l 3.5895,2.564 -1.0256,11.281 -1.0256,11.281 -8.102,-3.897 c -5.7432,-2.666 -9.7429,-5.538 -13.6401,-9.64 -6.256,-6.461 -7.4867,-8.41 -10.4609,-17.64 -1.9486,-5.948 -2.1537,-9.025 -2.1537,-29.434 v -22.768 l -3.3844,-3.384 c -16.9219,-17.127 -30.86973,-40.613 -37.22828,-62.97 -2.87160671,-10.051 -2.97416421,-10.871 -2.87160691,-33.844 0,-21.025 0.3076719,-24.512 2.25625691,-31.793 5.5381,-19.999 15.69123,-34.049 35.07463,-48.305 4.5125,-3.384 8.3071,-6.563 8.6148,-7.281 0.3077,-0.718 -1.1281,-9.025 -3.0767,-18.46 -10.8711,-52.1 -9.743,-45.638 -25.024,-147.478 -1.6409,-10.768 -4.1023,-27.075 -5.5381,-36.408 -1.4358,-9.332 -3.99974,-26.357 -5.74322,-37.946 C 4.94677,108.09498 2.6905,94.454877 1.87005,89.429577 0.94702899,84.301777 0.12656999,74.866377 0.12656999,68.405277 0.02401309,55.688177 1.76749,48.304077 7.30558,37.227877 c 3.89722,-7.5892 14.15292,-17.127 23.58822,-21.7421 7.6918,-3.7946 8.4097,-3.8972 18.768,-3.9998 9.948,0 11.2813,0.2052 16.7168,2.9742 19.9987,10.1532 30.2544,31.0749 36.6134,74.4566 1.23,8.2046 2.564,16.512203 2.974,18.460203 0.513,1.949 1.436,7.282 2.153,11.794 0.718,4.513 1.949,12.102 2.769,16.922 0.821,4.82 2.77,17.025 4.513,27.178 1.641,10.153 3.59,21.434 4.307,25.126 l 1.334,6.667 1.23,-7.179 c 0.718,-4 2.667,-16.41 4.41,-27.691 1.641,-11.281 3.282,-21.434 3.59,-22.562 0.205,-1.129 1.538,-9.641 2.974,-18.974 11.076,-75.994503 13.332,-84.917003 24.921,-99.582703 z"
     fill="#faff00"
     id="path2" />
</svg>
