<?xml version="1.0" encoding="UTF-8" standalone="no"?>
<svg
   version="1.1"
   x="0px"
   y="0px"
   viewBox="0 0 63.540508 80.037132"
   xml:space="preserve"
   id="svg10"
   sodipodi:docname="noun-ok-hand-959742.svg"
   inkscape:export-filename="noun-ok-hand-959742.svg"
   inkscape:export-xdpi="96"
   inkscape:export-ydpi="96"
   inkscape:version="1.2.2 (732a01da63, 2022-12-09)"
   width="63.540508"
   height="80.037132"
   xmlns:inkscape="http://www.inkscape.org/namespaces/inkscape"
   xmlns:sodipodi="http://sodipodi.sourceforge.net/DTD/sodipodi-0.dtd"
   xmlns="http://www.w3.org/2000/svg"
   xmlns:svg="http://www.w3.org/2000/svg"><defs
     id="defs14" /><sodipodi:namedview
     id="namedview12"
     pagecolor="#ffffff"
     bordercolor="#000000"
     borderopacity="0.25"
     inkscape:showpageshadow="2"
     inkscape:pageopacity="0.0"
     inkscape:pagecheckerboard="0"
     inkscape:deskcolor="#d1d1d1"
     showgrid="false"
     inkscape:zoom="7.156044"
     inkscape:cx="45.625768"
     inkscape:cy="49.818028"
     inkscape:window-width="1920"
     inkscape:window-height="1001"
     inkscape:window-x="-9"
     inkscape:window-y="-9"
     inkscape:window-maximized="1"
     inkscape:current-layer="g4" /><g
     id="g4"
     transform="translate(-19.445563,-4.1447277)"><path
       d="m 29.409742,7.7537462 c 1.498742,-1.724463 3.069767,-2.1509373 4.097677,-2.0926167 2.549486,-0.011006 4.44513,2.0714289 4.66576,2.2979732 l 1.190219,1.3127749 c 0.154262,-1.518619 0.755698,-3.0313236 2.335594,-4.1285595 1.759949,-1.1843049 3.235033,-1.12007 4.16996,-0.794628 2.273492,0.5667727 3.274788,2.6373783 3.361857,2.817431 l 2.748593,5.2244839 c 0.679633,-0.66189 1.626388,-1.230797 3.060895,-1.480175 3.316189,-0.492843 5.255367,1.679618 5.864851,2.939987 0.04353,0.09002 0.04353,0.09002 0.08707,0.180052 l 9.659249,30.540938 c 0.568907,0.946755 1.047787,1.937045 1.480176,3.060896 L 82.829318,70.67313 c 0.391811,0.810237 0.01988,1.878725 -0.79036,2.270536 -0.810237,0.391811 -1.878724,0.01988 -2.270535,-0.79036 L 69.070747,49.112479 c 0,0 -0.04353,-0.09002 -0.04353,-0.09002 -2.765513,-7.326797 -7.582577,-8.329739 -7.806165,-8.332696 0,0 -0.09002,0.04353 -0.13356,-0.04649 -0.757831,-0.188924 -17.836707,-4.037557 -22.82791,-5.400604 -1.292074,-0.374891 -2.108226,0.464091 -2.154718,0.597655 -0.04649,0.13356 -0.136518,0.177095 -0.226544,0.22063 l -11.536024,9.910603 c -0.09002,0.04353 -2.215995,1.849153 -1.2147,3.919758 0.304742,0.630185 0.748959,0.859687 1.016081,0.95267 1.292075,0.374892 3.36268,-0.626404 4.039356,-1.064707 l 9.134061,-7.527213 c 0.453088,-0.44126 1.213877,-0.475923 1.791654,-0.19993 l 10.530613,5.23796 c 0.444217,0.229501 0.751916,0.636098 0.879562,1.129765 0.214719,0.673718 0.762922,3.185584 0.773928,5.73507 0.36602,-0.621312 0.598479,-1.289117 0.694419,-1.779825 0.101855,-0.937884 0.915049,-1.553283 1.852933,-1.451428 0.937883,0.101856 1.553282,0.91505 1.451427,1.852933 -0.352057,2.947212 -3.038884,6.579148 -7.000043,8.494669 -1.170342,0.565949 -2.427754,0.951847 -3.682209,1.114155 -1.751077,0.513543 -3.359722,0.402817 -4.561771,-0.01561 -2.407053,-0.613264 -4.04149,-2.155541 -4.218586,-2.292059 l -5.251586,-5.347039 c -0.444217,-0.229502 -2.04399,-1.01099 -3.763363,0.486928 -1.446335,1.143727 -1.458164,2.038077 -1.551147,2.305199 l 6.664569,10.106606 5.048701,3.778972 c 0,0 0.04353,0.09002 0.177094,0.136519 1.370273,1.225705 5.579987,4.188527 15.545472,4.812308 5.27311,0.338095 7.128178,2.106916 7.525903,2.469978 0.08707,0.180053 0.22063,0.226544 0.307699,0.406597 l 1.218968,2.520737 c 0.391811,0.810237 0.01988,1.878725 -0.79036,2.270537 -0.810237,0.391811 -1.878724,0.01988 -2.270535,-0.790361 l -1.04483,-2.160632 C 57.15785,80.754586 55.738129,79.886028 52.564373,79.754601 41.794565,79.075455 36.827021,75.92371 34.748366,74.151932 l -5.225795,-3.91549 C 29.345475,70.099924 29.16838,69.963406 29.081311,69.783353 L 22.155533,59.136588 c -0.04353,-0.09002 -0.130604,-0.270079 -0.174138,-0.360105 -0.130604,-0.270079 -0.774751,-2.291235 1.136503,-4.770573 -1.292075,-0.374891 -2.398183,-1.284026 -3.051202,-2.634421 -1.741382,-3.601053 0.582382,-6.835264 2.028718,-7.978992 l 11.399505,-9.733513 c 0.819108,-1.062573 2.849136,-2.377482 5.656873,-1.624742 0.891392,0.235416 2.273493,0.566773 3.922715,0.991113 L 30.577615,17.519302 C 28.76904,15.61692 26.232205,11.289742 29.409742,7.7537462 Z m 3.081899,44.2740548 c 0.133561,0.04649 0.177096,0.136518 0.220631,0.226544 l 5.385148,5.393531 c 0.441259,0.45309 4.331446,3.903663 9.045344,-0.819595 0.996204,-0.926056 0.77344,-4.372847 0.268768,-6.794687 l -8.797277,-4.40998 -7.144609,5.898692 c 0.400683,0.139474 0.71134,0.322485 1.021995,0.505495 z M 44.976737,7.5571093 C 44.709615,7.4641258 44.396002,7.504703 43.94587,7.7223759 43.855847,7.76591 43.675791,7.8529799 43.495739,7.9400488 42.142386,8.8166548 42.827111,11.151425 42.957715,11.421504 L 44.783209,15.426198 57.080172,29.140596 46.169914,8.6462968 C 46.126379,8.5562704 45.601007,7.6995417 44.976737,7.5571093 Z m 10.599937,6.7595357 c -1.434505,0.249382 -1.669922,1.140771 -1.675836,1.587945 0,0 0.04353,0.09002 0.04353,0.09002 L 64.114543,34.958467 57.800718,15.240566 C 57.62658,14.88046 56.921155,14.110801 55.576674,14.316645 Z m -22.597097,0.819261 c 0.04353,0.09002 0.04353,0.09002 0.177096,0.136518 l 15.269142,18.941839 c 4.012742,0.947579 8.382632,1.944606 10.969737,2.470801 L 42.207108,17.449488 c 0,0 -0.04353,-0.09002 -0.04353,-0.09002 L 35.640613,10.07242 c -0.220631,-0.2265445 -1.236711,-1.1792141 -2.13106,-1.1910427 -0.223588,-0.00296 -0.760789,0.034663 -1.57694,0.8736485 -1.864761,2.3457762 0.959892,5.2008282 1.046952,5.3808822 z"
       id="path2"
       style="fill:#ffff00;image-rendering:auto"
       inkscape:export-filename=".\path2.svg"
       inkscape:export-xdpi="96"
       inkscape:export-ydpi="96" /></g></svg>
