<?xml version="1.0" encoding="UTF-8" standalone="no"?>
<!-- Created with Inkscape (http://www.inkscape.org/) -->

<svg
   width="20.274597mm"
   height="30.502607mm"
   viewBox="0 0 20.274597 30.502607"
   version="1.1"
   id="svg5"
   xml:space="preserve"
   xmlns:inkscape="http://www.inkscape.org/namespaces/inkscape"
   xmlns:sodipodi="http://sodipodi.sourceforge.net/DTD/sodipodi-0.dtd"
   xmlns="http://www.w3.org/2000/svg"
   xmlns:svg="http://www.w3.org/2000/svg"><sodipodi:namedview
     id="namedview7"
     pagecolor="#ffffff"
     bordercolor="#000000"
     borderopacity="0.25"
     inkscape:showpageshadow="2"
     inkscape:pageopacity="0.0"
     inkscape:pagecheckerboard="0"
     inkscape:deskcolor="#d1d1d1"
     inkscape:document-units="mm"
     showgrid="false" /><defs
     id="defs2" /><g
     inkscape:label="Livello 1"
     inkscape:groupmode="layer"
     id="layer1"
     transform="translate(701.58083,14.015181)"><path
       d="m -697.11062,-13.882738 c -0.74912,0.265174 -1.37228,0.841932 -1.64409,1.518129 l -0.15247,0.371246 -0.0199,7.1928888 -0.0133,7.1928356 -0.55024,0.258547 c -0.70272,0.3314823 -1.38554,0.9944036 -1.69049,1.6374881 -0.3381,0.7093095 -0.43091,1.2263993 -0.39114,2.1810317 0.0464,0.9414027 0.18563,1.5579352 0.5635,2.4661258 0.49058,1.193289 0.88171,1.75015 2.53243,3.599748 1.51812,1.703767 2.10152,2.552344 2.26062,3.274927 0.13922,0.643036 0.66293,0.875075 1.12035,0.490587 0.21216,-0.172378 0.21216,-0.185656 0.18561,-0.656304 -0.0663,-0.987796 -0.60325,-1.809822 -2.93017,-4.441713 -1.37228,-1.5578867 -1.80319,-2.2539721 -2.20095,-3.5798628 -0.14585,-0.4839259 -0.17899,-0.7225831 -0.17899,-1.3523892 0,-0.9214683 0.13258,-1.3391203 0.59001,-1.8495974 0.28506,-0.3115486 0.97452,-0.7358615 1.20654,-0.7358615 0.17237,0 0.66295,-0.2651597 0.72261,-0.384488 0.0265,-0.059663 0.0663,-3.4671436 0.0862,-7.5707569 0.0398,-8.2999672 0,-7.6370322 0.49056,-8.0745652 0.60326,-0.530353 1.65733,-0.371246 2.05509,0.318209 0.13922,0.225397 0.13922,0.331467 0.17239,5.6879913 l 0.0332,5.46261926 0.21877,0.19226839 c 0.30494,0.2717718 0.64304,0.26515974 0.91486,-0.0132722 0.19222,-0.19888113 0.19222,-0.20549319 0.22538,-1.20656245 0.0398,-1.0938456 0.0795,-1.2396764 0.45742,-1.5976612 0.41104,-0.3911495 1.23968,-0.4309263 1.71038,-0.066279 0.41104,0.3115493 0.50382,0.5966448 0.54359,1.7368799 0.0398,1.0142934 0.0398,1.02090614 0.22544,1.18001256 0.25188,0.21215541 0.63641,0.21877091 0.88168,0 0.17239,-0.14582803 0.18561,-0.19888113 0.22539,-0.87507746 0.053,-0.8419161 0.1591,-1.133623 0.4972,-1.3921686 0.21216,-0.1591058 0.3116,-0.1856055 0.78229,-0.2054925 0.74249,-0.033167 1.00103,0.1127162 1.23307,0.6761942 0.14583,0.3579862 0.16572,0.5237053 0.19888,1.67060335 l 0.0398,1.27945107 0.1856,0.17899344 c 0.14583,0.15249092 0.23866,0.18565633 0.47732,0.17899412 0.1591,0 0.3447,-0.0463909 0.40437,-0.0994399 0.17238,-0.13921872 0.29171,-0.48392858 0.29171,-0.82202775 0,-0.38448664 0.13922,-0.72258375 0.35798,-0.86179972 0.24528,-0.15910641 1.03419,-0.25854771 1.3789,-0.16576931 0.37126,0.10610552 0.67619,0.42431218 0.82207,0.8684626 0.10606,0.3116001 0.11933,0.69608742 0.14584,3.1754924 0.0398,4.3422169 -0.0862,5.8006655 -0.62315,7.4248755 -0.31822,0.954632 -0.72263,1.697106 -1.63083,2.983216 -0.91485,1.299339 -1.05406,1.577777 -1.09384,2.260637 -0.0332,0.497204 -0.0332,0.497204 0.17899,0.67619 0.42426,0.364603 1.00102,0.152449 1.09384,-0.391144 0.0862,-0.510477 0.18561,-0.709359 0.88831,-1.703767 1.16017,-1.657324 1.54466,-2.3733 1.92254,-3.599748 0.53036,-1.7236042 0.60325,-2.5257931 0.60325,-6.8017355 0,-3.87152203 -0.0265,-4.18973144 -0.40438,-4.9454806 -0.25854,-0.4972028 -0.66291,-0.8949644 -1.1734,-1.1270103 -0.51048,-0.2320438 -1.43194,-0.2784333 -2.10814,-0.099443 l -0.4707,0.1259444 -0.11267,-0.4176513 c -0.20553,-0.7159717 -0.64969,-1.2794518 -1.22645,-1.5777742 -0.80879,-0.4043764 -2.0352,-0.3579868 -2.84399,0.119329 l -0.22538,0.1326039 -0.29171,-0.3380971 c -0.44415,-0.5038657 -1.10047,-0.8088002 -1.82972,-0.8551897 -0.46403,-0.033167 -0.62313,-0.013265 -1.02756,0.125941 l -0.48393,0.1591064 v -3.2152712 c 0,-1.7700315 -0.0332,-3.4141168 -0.0663,-3.6461438 -0.126,-0.875075 -0.68947,-1.630823 -1.5115,-2.015329 -0.59665,-0.278433 -1.42534,-0.324841 -2.02861,-0.112701 z"
       fill="#faff00"
       id="path64"
       style="stroke-width:0.0497204" /></g></svg>
