<?xml version="1.0" encoding="UTF-8" standalone="no"?>
<!-- Created with Inkscape (http://www.inkscape.org/) -->

<svg
   width="31.544922mm"
   height="33.33952mm"
   viewBox="0 0 31.544922 33.33952"
   version="1.1"
   id="svg5"
   xml:space="preserve"
   xmlns:inkscape="http://www.inkscape.org/namespaces/inkscape"
   xmlns:sodipodi="http://sodipodi.sourceforge.net/DTD/sodipodi-0.dtd"
   xmlns="http://www.w3.org/2000/svg"
   xmlns:svg="http://www.w3.org/2000/svg"><sodipodi:namedview
     id="namedview7"
     pagecolor="#ffffff"
     bordercolor="#000000"
     borderopacity="0.25"
     inkscape:showpageshadow="2"
     inkscape:pageopacity="0.0"
     inkscape:pagecheckerboard="0"
     inkscape:deskcolor="#d1d1d1"
     inkscape:document-units="mm"
     showgrid="false" /><defs
     id="defs2" /><g
     inkscape:label="Livello 1"
     inkscape:groupmode="layer"
     id="layer1"
     transform="translate(645.80287,62.147413)"><path
       d="m -632.4571,-62.058201 c -0.96786,0.212139 -1.66394,0.835303 -2.0352,1.816448 -0.13922,0.357987 -0.14583,0.497203 -0.17238,4.149974 -0.0265,4.302495 0.0266,4.229557 -0.54359,0.66297 -0.37788,-2.340189 -0.46404,-2.62525 -0.95464,-3.115826 -0.53697,-0.543607 -1.32588,-0.788892 -2.38657,-0.749116 -0.55025,0.01989 -0.72925,0.05303 -1.0408,0.198881 -0.4707,0.21877 -0.92812,0.689452 -1.19994,1.239692 -0.33808,0.689441 -0.32482,1.15353 0.0862,3.586493 0.29166,1.716991 0.78225,4.348884 0.90158,4.806312 0.0265,0.106054 0.0198,0.112667 -0.0332,0.03311 -0.0398,-0.053 -0.23866,-0.60987 -0.44415,-1.239676 -0.40438,-1.259563 -0.6099,-1.624213 -1.08059,-1.968925 -1.40542,-1.034182 -3.43401,-0.550254 -4.19639,1.007683 -0.17899,0.357986 -0.21877,0.523703 -0.23866,1.007631 -0.0265,0.563529 -0.0133,0.63642 0.58338,2.790998 2.21422,8.054688 3.30807,11.707439 3.88482,12.993552 1.53802,3.440643 4.27592,5.489121 7.97511,5.966434 0.77564,0.09944 2.37335,0.07955 3.10254,-0.03978 1.8496,-0.298322 3.64619,-1.087236 5.35658,-2.360072 1.359,-1.007635 7.14644,-6.19182 9.2148,-8.246908 1.15352,-1.146897 1.47839,-1.836369 1.41206,-3.009768 -0.0265,-0.464039 -0.0663,-0.616531 -0.31821,-1.113734 -0.58337,-1.18001 -1.66393,-1.876095 -2.91028,-1.876095 -0.45081,0 -1.28611,0.232044 -1.70377,0.470702 -0.19887,0.112666 -0.82868,0.629757 -1.39878,1.140235 -1.38555,1.259563 -2.06175,1.842983 -2.44623,2.108141 -0.84858,0.59003 -1.81648,-0.01989 -1.81648,-1.1469 0,-0.205493 0.21215,-1.650713 0.46409,-3.215211 0.25854,-1.557935 0.72258,-4.4616 1.03418,-6.450412 0.65631,-4.183118 0.66954,-4.474827 0.31155,-5.24382 -0.22539,-0.483943 -0.41099,-0.689457 -0.92809,-1.027555 -0.90162,-0.59001 -2.12802,-0.543606 -3.04953,0.11933 -0.44416,0.311581 -0.9082,0.948001 -1.0673,1.458464 -0.0729,0.225417 -0.32488,1.663974 -0.55687,3.188747 l -0.41765,2.777673 -0.0398,-4.368722 c -0.0332,-4.541144 -0.0398,-4.554399 -0.32487,-5.131154 -0.30494,-0.590016 -1.10046,-1.126993 -1.86281,-1.252951 -0.52376,-0.07955 -0.6497,-0.07955 -1.16018,0.03315 z m 1.08062,1.617567 c 0.55686,0.258547 0.51043,-0.258545 0.5502,6.470271 0.0332,5.873608 0.0332,5.973047 0.17238,6.264756 0.39777,0.855191 1.27284,1.153512 2.04848,0.696085 0.45081,-0.265158 0.66292,-0.63642 0.76236,-1.34578 0.0398,-0.318209 0.23866,-1.650712 0.43754,-2.963328 0.19227,-1.312617 0.45743,-3.122435 0.57675,-4.024013 0.25194,-1.803207 0.30499,-1.968928 0.74914,-2.227475 0.21216,-0.125955 0.33149,-0.145844 0.6762,-0.125955 0.35798,0.01989 0.44415,0.0464 0.61653,0.225396 0.39115,0.384493 0.40437,0.178993 -0.64969,7.146452 -0.8552,5.608449 -0.96786,6.470301 -0.97453,7.226048 -0.007,0.994406 0.10611,1.378893 0.55687,1.942372 0.83531,1.060735 2.44624,1.484997 3.54009,0.928129 0.42431,-0.218769 1.45184,-1.067345 3.04288,-2.519177 1.14029,-1.040794 1.71704,-1.305952 2.42639,-1.113735 0.37784,0.09944 0.8552,0.543643 0.92809,0.861852 0.0729,0.34471 -0.0199,1.067295 -0.18561,1.412057 -0.21877,0.450763 -2.18108,2.313634 -6.30453,5.986323 -2.94344,2.611954 -3.44731,3.022991 -4.58754,3.719078 -1.47172,0.894964 -2.91028,1.392165 -4.39527,1.511494 -0.60326,0.053 -1.92254,-0.05305 -2.67163,-0.205541 -2.91033,-0.596645 -5.0118,-2.565568 -6.01949,-5.648227 -0.71597,-2.181028 -3.86491,-13.344924 -3.91795,-13.875242 -0.053,-0.563528 0.12596,-0.914853 0.58339,-1.140285 0.41102,-0.212105 0.53035,-0.218768 0.89496,-0.05301 0.37125,0.172331 0.52372,0.391102 0.72261,1.054072 0.14584,0.503815 1.12035,3.566586 1.59767,5.058194 0.28505,0.875076 0.80214,1.312616 1.54465,1.319227 0.60988,0 1.0673,-0.304933 1.31923,-0.881689 0.13922,-0.324822 0.0862,-0.908241 -0.21215,-2.472738 -0.43754,-2.247358 -0.98775,-5.257127 -1.33251,-7.285714 -0.16571,-0.987744 -0.35132,-1.949036 -0.41098,-2.141254 -0.0994,-0.31821 -0.0994,-0.364649 0,-0.576775 0.28505,-0.596644 1.50483,-0.682824 1.86282,-0.13259 0.0928,0.139217 0.24532,0.961247 0.57676,3.009724 1.04745,6.563078 1.08062,6.728846 1.56454,7.172997 0.73586,0.689472 1.81643,0.41765 2.13464,-0.530367 0.053,-0.159103 0.0729,-1.895982 0.0729,-6.132153 0,-5.608453 0.007,-5.92003 0.12593,-6.178576 0.22544,-0.50383 0.96791,-0.702712 1.57783,-0.43091 z"
       fill="#faff00"
       id="path53"
       style="stroke-width:0.0497204" /></g></svg>
