<?xml version="1.0" encoding="UTF-8" standalone="no"?>
<!-- Created with Inkscape (http://www.inkscape.org/) -->

<svg
   width="31.544922mm"
   height="33.33952mm"
   viewBox="0 0 31.544922 33.33952"
   version="1.1"
   id="svg5"
   xml:space="preserve"
   xmlns:inkscape="http://www.inkscape.org/namespaces/inkscape"
   xmlns:sodipodi="http://sodipodi.sourceforge.net/DTD/sodipodi-0.dtd"
   xmlns="http://www.w3.org/2000/svg"
   xmlns:svg="http://www.w3.org/2000/svg"><sodipodi:namedview
     id="namedview7"
     pagecolor="#ffffff"
     bordercolor="#000000"
     borderopacity="0.25"
     inkscape:showpageshadow="2"
     inkscape:pageopacity="0.0"
     inkscape:pagecheckerboard="0"
     inkscape:deskcolor="#d1d1d1"
     inkscape:document-units="mm"
     showgrid="false" /><defs
     id="defs2" /><g
     inkscape:label="Livello 1"
     inkscape:groupmode="layer"
     id="layer1"
     transform="translate(630.50349,90.130979)"><path
       d="m -612.3044,-90.041771 c 0.96791,0.21214 1.66399,0.835304 2.03525,1.816449 0.13922,0.357986 0.14583,0.497203 0.17233,4.149974 0.0266,4.302496 -0.0265,4.229556 0.54365,0.66297 0.37786,-2.34019 0.46403,-2.625251 0.95463,-3.115826 0.53696,-0.543607 1.32583,-0.788892 2.38656,-0.749116 0.55021,0.01989 0.7292,0.05303 1.0408,0.198881 0.4707,0.218769 0.92813,0.689451 1.1999,1.239691 0.33809,0.689441 0.32487,1.15353 -0.0862,3.586494 -0.29171,1.71699 -0.78224,4.348884 -0.90158,4.806312 -0.0265,0.106052 -0.0199,0.112665 0.0332,0.03311 0.0398,-0.05301 0.23866,-0.609869 0.4442,-1.239676 0.40438,-1.259563 0.60987,-1.624212 1.08057,-1.968923 1.40545,-1.034182 3.43404,-0.550255 4.19639,1.007681 0.179,0.357986 0.21878,0.523704 0.23866,1.007632 0.0265,0.563529 0.0133,0.636419 -0.58337,2.790997 -2.21423,8.05469 -3.30808,11.707441 -3.88484,12.993554 -1.538,3.440645 -4.27595,5.48912 -7.97513,5.966435 -0.77564,0.09944 -2.3733,0.07955 -3.10255,-0.03978 -1.84959,-0.298321 -3.64614,-1.087234 -5.35651,-2.360073 -1.35901,-1.007632 -7.14648,-6.191818 -9.21485,-8.246906 -1.1535,-1.146897 -1.47834,-1.836369 -1.41205,-3.009769 0.0265,-0.464038 0.0663,-0.616531 0.3182,-1.113734 0.5834,-1.180011 1.66398,-1.876096 2.91031,-1.876096 0.45079,0 1.28609,0.232045 1.70374,0.470702 0.19891,0.112667 0.82866,0.629757 1.39881,1.140235 1.38555,1.259564 2.06175,1.842984 2.44624,2.108142 0.84853,0.590031 1.81643,-0.01989 1.81643,-1.146899 0,-0.205493 -0.21211,-1.650714 -0.46404,-3.215213 -0.25854,-1.557935 -0.72259,-4.461599 -1.03419,-6.450412 -0.6563,-4.183117 -0.66957,-4.474826 -0.31159,-5.24382 0.22543,-0.483942 0.41104,-0.689457 0.92812,-1.027554 0.90159,-0.590011 2.12804,-0.543606 3.04951,0.119329 0.44415,0.311582 0.90824,0.948001 1.06734,1.458465 0.0729,0.225417 0.32482,1.663974 0.55687,3.188746 l 0.41765,2.777674 0.0398,-4.368723 c 0.0332,-4.541143 0.0398,-4.554399 0.32482,-5.131155 0.30498,-0.590015 1.10051,-1.126991 1.86287,-1.252949 0.52371,-0.07955 0.6497,-0.07955 1.16013,0.03315 z m -1.08057,1.617568 c -0.55687,0.258545 -0.51048,-0.258545 -0.55026,6.47027 -0.0331,5.873608 -0.0331,5.973048 -0.17237,6.264757 -0.39776,0.855189 -1.27279,1.153511 -2.04843,0.696084 -0.45082,-0.265157 -0.66297,-0.63642 -0.76242,-1.345779 -0.0398,-0.31821 -0.23865,-1.650713 -0.43754,-2.963329 -0.19221,-1.312616 -0.45742,-3.122435 -0.57675,-4.024013 -0.25193,-1.803205 -0.30494,-1.968928 -0.74913,-2.227473 -0.21211,-0.125957 -0.33143,-0.145845 -0.6762,-0.125957 -0.35793,0.01989 -0.44415,0.0464 -0.61653,0.225397 -0.3911,0.384492 -0.40438,0.178993 0.64969,7.146452 0.85519,5.608448 0.96791,6.470299 0.97452,7.226049 0.007,0.994406 -0.10605,1.378893 -0.55686,1.942372 -0.8353,1.060735 -2.44624,1.484996 -3.54009,0.928129 -0.42426,-0.218769 -1.45183,-1.067345 -3.04288,-2.519177 -1.14025,-1.040796 -1.717,-1.305954 -2.42634,-1.113735 -0.37788,0.09944 -0.8552,0.543642 -0.92812,0.861852 -0.0729,0.34471 0.0199,1.067295 0.18563,1.412056 0.21876,0.450765 2.18106,2.313634 6.30454,5.986323 2.94344,2.611956 3.44726,3.022993 4.58754,3.719078 1.47167,0.894965 2.91028,1.392167 4.39527,1.511495 0.60326,0.05301 1.92248,-0.05305 2.67162,-0.205541 2.91028,-0.596644 5.01181,-2.565568 6.01949,-5.648226 0.71597,-2.18103 3.86491,-13.344927 3.91796,-13.875244 0.053,-0.563529 -0.12599,-0.914853 -0.58342,-1.140285 -0.41099,-0.212107 -0.53031,-0.218769 -0.89496,-0.05301 -0.37121,0.17233 -0.52371,0.391099 -0.72259,1.054069 -0.14583,0.503816 -1.12035,3.566587 -1.59766,5.058196 -0.2851,0.875075 -0.80219,1.312615 -1.54466,1.319229 -0.60992,0 -1.06735,-0.304935 -1.31923,-0.881692 -0.13921,-0.324822 -0.0862,-0.908239 0.2121,-2.472738 0.43755,-2.247358 0.9878,-5.257126 1.33251,-7.285714 0.16577,-0.987743 0.35137,-1.949035 0.41104,-2.141253 0.0994,-0.31821 0.0994,-0.364649 0,-0.576776 -0.28505,-0.596644 -1.50488,-0.682823 -1.86287,-0.132589 -0.0928,0.139217 -0.24527,0.961247 -0.57675,3.009723 -1.04742,6.563079 -1.08058,6.728846 -1.5645,7.172997 -0.73587,0.689471 -1.81649,0.41765 -2.1347,-0.530366 -0.053,-0.159104 -0.0729,-1.895984 -0.0729,-6.132153 0,-5.608453 -0.007,-5.920031 -0.12599,-6.178576 -0.22538,-0.50383 -0.96786,-0.702712 -1.57777,-0.430911 z"
       fill="#faff00"
       id="path31"
       style="stroke-width:0.0497204" /></g></svg>
