<?xml version="1.0" encoding="UTF-8" standalone="no"?>
<!-- Created with Inkscape (http://www.inkscape.org/) -->

<svg
   width="20.366089mm"
   height="32.580578mm"
   viewBox="0 0 20.366089 32.580578"
   version="1.1"
   id="svg5"
   xml:space="preserve"
   xmlns:inkscape="http://www.inkscape.org/namespaces/inkscape"
   xmlns:sodipodi="http://sodipodi.sourceforge.net/DTD/sodipodi-0.dtd"
   xmlns="http://www.w3.org/2000/svg"
   xmlns:svg="http://www.w3.org/2000/svg"><sodipodi:namedview
     id="namedview7"
     pagecolor="#ffffff"
     bordercolor="#000000"
     borderopacity="0.25"
     inkscape:showpageshadow="2"
     inkscape:pageopacity="0.0"
     inkscape:pagecheckerboard="0"
     inkscape:deskcolor="#d1d1d1"
     inkscape:document-units="mm"
     showgrid="false" /><defs
     id="defs2" /><g
     inkscape:label="Livello 1"
     inkscape:groupmode="layer"
     id="layer1"
     transform="translate(707.25508,51.030138)"><path
       d="m -698.72246,-50.926974 c -0.82203,0.311581 -1.28612,0.788894 -1.60433,1.637456 -0.13922,0.384501 -0.14583,0.510464 -0.17899,3.182099 l -0.0398,2.784342 -0.32482,-1.670604 c -0.35138,-1.809818 -0.51048,-2.360062 -0.83531,-2.87052 -1.02092,-1.597682 -3.52683,-1.531391 -4.48808,0.119322 -0.21213,0.357993 -0.41765,1.073965 -0.41765,1.44521 0,0.152473 0.21214,1.663974 0.46406,3.354466 0.6099,3.977624 1.3789,9.320914 1.43194,9.904281 l 0.0398,0.457429 -0.51046,0.258543 c -2.18106,1.107123 -2.6849,3.74558 -1.28609,6.728797 0.40438,0.868463 0.8817,1.524772 2.14791,2.956715 1.79656,2.028587 2.21422,2.625233 2.43299,3.434034 0.0729,0.258545 0.17899,0.510427 0.23866,0.556865 0.3381,0.271772 0.74908,0.265158 1.01429,-0.0199 0.13922,-0.145878 0.1591,-0.232042 0.15245,-0.609919 -0.007,-0.550254 -0.16572,-0.948017 -0.72259,-1.803205 -0.44415,-0.682809 -0.74914,-1.060681 -2.22746,-2.737896 -0.53036,-0.603308 -1.08059,-1.272842 -1.22644,-1.484995 -0.98115,-1.478335 -1.38554,-3.22849 -1.02093,-4.415163 0.18564,-0.59003 0.60328,-1.047459 1.21981,-1.345778 0.25855,-0.125945 0.50383,-0.225384 0.55025,-0.225384 0.2055,0 0.5436,-0.232046 0.64304,-0.44415 0.0928,-0.198881 0.0994,-0.31821 0.0398,-0.934743 -0.0928,-0.894967 -0.70934,-5.22396 -1.39216,-9.778341 -0.2917,-1.929147 -0.53035,-3.639525 -0.53035,-3.798635 0,-0.550235 0.27843,-1.007665 0.76238,-1.226436 0.45079,-0.212136 0.95463,-0.145843 1.27947,0.159106 0.34472,0.318215 0.47068,0.722604 0.90822,2.976593 0.71597,3.632915 1.61755,8.087851 1.69049,8.359624 0.13261,0.450813 0.48392,0.649694 0.92146,0.523753 0.47732,-0.145879 0.4707,-0.09283 0.47732,-3.440645 0.007,-1.630824 0.0266,-4.521264 0.053,-6.417249 l 0.0398,-3.447276 0.1856,-0.311583 c 0.21877,-0.377873 0.4707,-0.523724 0.9679,-0.5635 0.50382,-0.03977 1.02758,0.218775 1.22645,0.609904 0.13922,0.258545 0.13922,0.377874 0.17234,6.708949 0.0332,6.390699 0.0332,6.443749 0.17238,6.622742 0.1591,0.218768 0.4707,0.31821 0.76902,0.238658 0.44415,-0.112716 0.41098,0.04639 1.15351,-5.495784 0.37788,-2.797562 0.71598,-5.223932 0.75575,-5.383035 0.24527,-0.974523 0.8618,-1.412063 1.6706,-1.173406 0.38449,0.112707 0.62314,0.291694 0.72259,0.550241 0.15249,0.411022 -0.0265,2.326899 -0.87508,9.168411 -0.18561,1.504885 -0.25855,2.340185 -0.24527,2.771112 0.0199,0.589982 0.0332,0.629756 0.20549,0.782248 0.25194,0.212158 0.66959,0.218771 0.92813,0.0066 0.17233,-0.132554 0.19888,-0.212106 0.25189,-0.709311 0.0332,-0.304983 0.11271,-0.629805 0.16576,-0.715971 0.15911,-0.238658 0.59665,-0.411037 1.07396,-0.411037 0.75575,0 1.11373,0.285047 1.30595,1.054071 0.0928,0.357984 0.1061,0.881689 0.0796,4.236168 -0.0265,3.540083 -0.0398,3.878182 -0.16573,4.560992 -0.31159,1.657376 -0.82202,2.830773 -1.86947,4.302496 -1.08058,1.511497 -1.37889,2.161141 -1.30601,2.797561 0.0597,0.536977 0.51709,0.808801 0.99441,0.583418 0.24532,-0.112717 0.34476,-0.271821 0.41765,-0.676197 0.0663,-0.384538 0.2851,-0.762409 1.0143,-1.776703 1.08061,-1.498222 1.73692,-2.936779 2.05513,-4.521217 0.27177,-1.319228 0.29832,-1.842981 0.30494,-5.688001 0,-3.314702 -0.0133,-3.758853 -0.11273,-4.163229 -0.40437,-1.571162 -1.47171,-2.293796 -3.11576,-2.10814 -0.30499,0.03311 -0.55687,0.053 -0.57014,0.04639 -0.007,-0.01327 0.0464,-0.523704 0.11932,-1.140234 0.69608,-5.707891 0.81542,-6.801739 0.81542,-7.65032 0.007,-0.762375 -0.0133,-0.948002 -0.13922,-1.252952 -0.27182,-0.689454 -0.6762,-1.087217 -1.38555,-1.35239 -0.31156,-0.119328 -0.52371,-0.145844 -1.11374,-0.145844 -0.68942,0 -0.74909,0.01325 -1.12697,0.212136 -0.66296,0.344725 -1.13362,0.93474 -1.39216,1.763414 l -0.1525,0.477314 -0.0265,-1.325876 c -0.0199,-1.279466 -0.0266,-1.33913 -0.19889,-1.710378 -0.25193,-0.530345 -0.76241,-1.047441 -1.26622,-1.279466 -0.35799,-0.165736 -0.50382,-0.192253 -1.14024,-0.205513 -0.56353,-0.01325 -0.79552,0.0067 -1.02758,0.09944 z"
       fill="#faff00"
       id="path75"
       style="stroke-width:0.0497204"
       inkscape:export-filename="three.svg"
       inkscape:export-xdpi="96"
       inkscape:export-ydpi="96" /></g></svg>
